<svg id="Layer_1" enable-background="new 0 0 512 512" height="512" viewBox="0 0 512 512" width="512" xmlns="http://www.w3.org/2000/svg"><g><circle cx="401" cy="259.89" r="10"/><path d="m408.069 2.93c-1.859-1.861-4.439-2.93-7.069-2.93h-290c-2.63 0-5.21 1.069-7.07 2.93s-2.93 4.44-2.93 7.07v492c0 3.85 2.149 7.29 5.6 8.979 1.37.67 2.891 1.021 4.4 1.021 2.2 0 4.38-.74 6.12-2.101l32.92-25.51 23.77 24.57c1.87 1.93 4.5 3.04 7.2 3.03 1.65 0 3.3-.41 4.75-1.19l32.3-17.47 33.28 17.52c1.43.75 3.03 1.141 4.65 1.141 2.35 0 4.64-.82 6.43-2.33l30.49-25.54 29.56 25.46c1.82 1.56 4.14 2.42 6.53 2.42 1.689 0 3.37-.431 4.859-1.26l31.141-17.301 31.14 17.301c3.04 1.689 6.94 1.64 9.93-.12 3.04-1.79 4.931-5.09 4.931-8.62v-197.11c0-5.51-4.49-10-10-10s-10 4.49-10 10v180.11l-21.141-11.74c-2.96-1.64-6.76-1.64-9.72 0l-29.899 16.61-30.721-26.45c-1.81-1.561-4.12-2.42-6.52-2.42-2.351 0-4.63.83-6.42 2.33l-31.86 26.7-32.06-16.881c-2.91-1.529-6.53-1.51-9.42.051l-30.33 16.4-24.721-25.55c-1.909-1.97-4.46-3.05-7.199-3.05-2.23 0-4.351.72-6.12 2.1l-23.87 18.5v-461.6h270v194.89c0 5.51 4.49 10 10 10s10-4.49 10-10v-.01-204.88c0-2.63-1.07-5.21-2.931-7.07z"/><path d="m346 210h-89c-5.522 0-10 4.478-10 10s4.478 10 10 10h89c5.522 0 10-4.478 10-10s-4.478-10-10-10z"/><path d="m346 170h-89c-5.522 0-10 4.478-10 10s4.478 10 10 10h89c5.522 0 10-4.478 10-10s-4.478-10-10-10z"/><path d="m346 250h-89c-5.522 0-10 4.478-10 10s4.478 10 10 10h89c5.522 0 10-4.478 10-10s-4.478-10-10-10z"/><path d="m346 130h-89c-5.522 0-10 4.478-10 10s4.478 10 10 10h89c5.522 0 10-4.478 10-10s-4.478-10-10-10z"/><path d="m346 80h-68c-5.522 0-10 4.478-10 10s4.478 10 10 10h68c5.522 0 10-4.478 10-10s-4.478-10-10-10z"/><path d="m156 90c0 5.522 4.478 10 10 10h67c5.522 0 10-4.478 10-10s-4.478-10-10-10h-67c-5.522 0-10 4.478-10 10z"/><circle cx="256" cy="431" r="10"/><path d="m346 421h-45c-5.51 0-10 4.49-10 10s4.49 10 10 10h45c5.51 0 10-4.49 10-10s-4.49-10-10-10z"/><path d="m166 421c-5.51 0-10 4.49-10 10s4.49 10 10 10h45c5.51 0 10-4.49 10-10s-4.49-10-10-10z"/><path d="m244 391c0-5.522-4.478-10-10-10h-68c-5.522 0-10 4.478-10 10s4.478 10 10 10h68c5.522 0 10-4.478 10-10z"/><path d="m346 381h-67c-5.522 0-10 4.478-10 10s4.478 10 10 10h67c5.522 0 10-4.478 10-10s-4.478-10-10-10z"/><path d="m356 311c0-5.522-4.478-10-10-10h-180c-5.522 0-10 4.478-10 10v40c0 5.522 4.478 10 10 10h180c5.522 0 10-4.478 10-10zm-20 30h-160v-20h160z"/><path d="m301 60c5.522 0 10-4.478 10-10s-4.478-10-10-10h-90c-5.522 0-10 4.478-10 10s4.478 10 10 10z"/><path d="m195 281.333c5.522 0 10-4.478 10-10v-11.437c14.813-4.335 25.667-18.034 25.667-34.229 0-19.667-16-35.667-35.667-35.667-8.639 0-15.667-6.862-15.667-15.5s7.028-15.5 15.667-15.5h20.667c5.522 0 10-4.478 10-10s-4.478-10-10-10h-10.667v-10.333c0-5.522-4.478-10-10-10s-10 4.478-10 10v11.437c-14.813 4.335-25.667 18.034-25.667 34.229 0 19.667 16 35.667 35.667 35.667 8.639 0 15.667 6.862 15.667 15.5s-7.028 15.5-15.667 15.5h-20.667c-5.522 0-10 4.478-10 10s4.478 10 10 10h10.667v10.333c0 5.522 4.478 10 10 10z"/></g></svg>