<svg id="light" enable-background="new 0 0 24 24" height="512" viewBox="0 0 24 24" width="512" xmlns="http://www.w3.org/2000/svg"><path d="m12.5 24h-7c-3.799 0-5.5-3.265-5.5-6.5 0-4.643 2.451-9.45 5.827-11.432.077-.045.164-.068.253-.068h5.84c.089 0 .176.023.253.068.806.474 1.562 1.097 2.249 1.854.185.205.17.521-.035.706-.204.186-.52.17-.707-.034-.585-.645-1.223-1.181-1.898-1.594h-5.564c-3.03 1.854-5.218 6.243-5.218 10.5 0 2.537 1.179 5.5 4.5 5.5h7c3.321 0 4.5-2.963 4.5-5.5 0-1.397-.248-2.888-.718-4.308-.087-.263.056-.545.318-.632.262-.089.544.056.631.317.503 1.521.769 3.12.769 4.623 0 3.235-1.701 6.5-5.5 6.5z"/><path d="m12.5 7h-7c-.827 0-1.5-.673-1.5-1.5s.673-1.5 1.5-1.5h7c.827 0 1.5.673 1.5 1.5s-.673 1.5-1.5 1.5zm-7-2c-.276 0-.5.225-.5.5s.224.5.5.5h7c.276 0 .5-.225.5-.5s-.224-.5-.5-.5z"/><path d="m11.5 5c-.147 0-.292-.064-.391-.188-.172-.216-.137-.53.078-.703l2.774-2.219c.257-.205.188-.478.16-.557-.027-.077-.143-.333-.472-.333h-9.298c-.329 0-.445.256-.472.334-.028.079-.098.352.16.557l2.774 2.219c.215.173.25.487.078.703-.172.215-.486.25-.703.078l-2.774-2.219c-.505-.404-.693-1.059-.479-1.669.214-.609.77-1.003 1.416-1.003h9.299c.646 0 1.202.394 1.416 1.003.214.61.026 1.265-.479 1.669l-2.774 2.219c-.093.073-.203.109-.313.109z"/><path d="m9.5 18.5h-2.5c-.276 0-.5-.224-.5-.5s.224-.5.5-.5h2.5c.551 0 1-.448 1-1s-.449-1-1-1h-1c-1.103 0-2-.897-2-2s.897-2 2-2h2.5c.276 0 .5.224.5.5s-.224.5-.5.5h-2.5c-.551 0-1 .448-1 1s.449 1 1 1h1c1.103 0 2 .897 2 2s-.897 2-2 2z"/><path d="m9 20c-.276 0-.5-.224-.5-.5v-1.5c0-.276.224-.5.5-.5s.5.224.5.5v1.5c0 .276-.224.5-.5.5z"/><path d="m9 12.5c-.276 0-.5-.224-.5-.5v-1.5c0-.276.224-.5.5-.5s.5.224.5.5v1.5c0 .276-.224.5-.5.5z"/><path d="m14.5 12c-.128 0-.256-.049-.354-.146-.195-.195-.195-.512 0-.707l2.5-2.5c.152-.152.384-.188.577-.094l1.678.839 3.245-3.245c.195-.195.512-.195.707 0s.195.512 0 .707l-3.5 3.5c-.153.151-.386.188-.577.094l-1.678-.839-2.245 2.245c-.097.097-.225.146-.353.146z"/><path d="m22.5 10c-.276 0-.5-.224-.5-.5v-2.5h-2.5c-.276 0-.5-.224-.5-.5s.224-.5.5-.5h3c.276 0 .5.224.5.5v3c0 .276-.224.5-.5.5z"/></svg>