<svg xmlns="http://www.w3.org/2000/svg" height="937.5pt" version="1.1" viewBox="0 0 937.5 937.5" width="937.5pt">
<g id="surface1">
<path d="M 810.9375 584.707031 C 811.945312 582.65625 812.476562 580.410156 812.5 578.125 L 812.5 187.5 C 847.015625 187.5 875 159.515625 875 125 C 875 90.484375 847.015625 62.5 812.5 62.5 L 125 62.5 C 90.484375 62.5 62.5 90.484375 62.5 125 C 62.5 159.515625 90.484375 187.5 125 187.5 L 125 578.125 C 125 586.757812 131.992188 593.75 140.625 593.75 L 265.625 593.75 L 265.625 828.125 C 265.695312 888.5 314.625 937.429688 375 937.5 L 569.863281 937.5 C 619.214844 937.363281 664.921875 911.484375 690.433594 869.234375 L 817.53125 657.414062 C 831.546875 634.351562 828.867188 604.851562 810.9375 584.707031 Z M 671.875 593.75 L 710.390625 593.75 L 671.875 651.5625 Z M 156.25 468.75 L 781.25 468.75 L 781.25 500 L 156.25 500 Z M 843.75 125 C 843.75 142.261719 829.761719 156.25 812.5 156.25 L 812.5 93.75 C 829.761719 93.75 843.75 107.738281 843.75 125 Z M 781.25 93.75 L 781.25 437.5 L 156.25 437.5 L 156.25 93.75 Z M 93.75 125 C 93.75 107.738281 107.738281 93.75 125 93.75 L 125 156.25 C 107.738281 156.25 93.75 142.261719 93.75 125 Z M 156.25 562.5 L 156.25 531.25 L 781.25 531.25 L 781.25 562.5 Z M 790.734375 641.328125 L 663.640625 853.125 C 643.804688 885.984375 608.273438 906.125 569.890625 906.25 L 375 906.25 C 331.875 906.195312 296.929688 871.25 296.875 828.125 L 296.875 593.75 L 359.375 593.75 L 359.375 656.25 L 390.625 656.25 L 390.625 593.75 L 453.125 593.75 L 453.125 656.25 L 484.375 656.25 L 484.375 593.75 L 546.875 593.75 L 546.875 656.25 L 578.125 656.25 L 578.125 593.75 L 640.625 593.75 L 640.625 687.5 L 593.75 687.5 C 516.117188 687.59375 453.21875 750.492188 453.125 828.125 L 484.375 828.125 C 484.445312 767.75 533.375 718.820312 593.75 718.75 L 656.25 718.75 C 661.464844 718.753906 666.347656 716.171875 669.25 711.84375 L 738.328125 608.210938 C 747.664062 594.199219 766.484375 590.195312 780.722656 599.210938 C 794.960938 608.207031 799.40625 626.929688 790.734375 641.367188 Z M 790.734375 641.328125 " style=" stroke:none;fill-rule:nonzero;fill:rgb(0%,0%,0%);fill-opacity:1;" />
<path d="M 921.875 0 L 15.625 0 C 6.992188 0 0 6.992188 0 15.625 L 0 234.375 C 0 243.007812 6.992188 250 15.625 250 L 93.75 250 L 93.75 218.75 L 31.25 218.75 L 31.25 31.25 L 906.25 31.25 L 906.25 218.75 L 843.75 218.75 L 843.75 250 L 921.875 250 C 930.507812 250 937.5 243.007812 937.5 234.375 L 937.5 15.625 C 937.5 6.992188 930.507812 0 921.875 0 Z M 921.875 0 " style=" stroke:none;fill-rule:nonzero;fill:rgb(0%,0%,0%);fill-opacity:1;" />
<path d="M 203.125 359.375 C 220.386719 359.375 234.375 373.363281 234.375 390.625 C 234.375 399.257812 241.367188 406.25 250 406.25 L 687.5 406.25 C 696.132812 406.25 703.125 399.257812 703.125 390.625 C 703.125 373.363281 717.113281 359.375 734.375 359.375 C 743.007812 359.375 750 352.382812 750 343.75 L 750 187.5 C 750 178.867188 743.007812 171.875 734.375 171.875 C 717.113281 171.875 703.125 157.886719 703.125 140.625 C 703.125 131.992188 696.132812 125 687.5 125 L 250 125 C 241.367188 125 234.375 131.992188 234.375 140.625 C 234.375 157.886719 220.386719 171.875 203.125 171.875 C 194.492188 171.875 187.5 178.867188 187.5 187.5 L 187.5 343.75 C 187.5 352.382812 194.492188 359.375 203.125 359.375 Z M 375 265.625 C 375 205.316406 417.046875 156.25 468.75 156.25 C 520.453125 156.25 562.5 205.316406 562.5 265.625 C 562.5 325.933594 520.453125 375 468.75 375 C 417.046875 375 375 325.933594 375 265.625 Z M 673.835938 156.25 C 679.570312 178.246094 696.753906 195.429688 718.75 201.164062 L 718.75 330.085938 C 696.753906 335.820312 679.570312 353.003906 673.835938 375 L 547.144531 375 C 577.335938 346.6875 594.242188 307.007812 593.75 265.625 C 594.242188 224.242188 577.335938 184.5625 547.144531 156.25 Z M 218.75 201.164062 C 240.746094 195.429688 257.929688 178.246094 263.664062 156.25 L 390.355469 156.25 C 360.164062 184.5625 343.257812 224.242188 343.75 265.625 C 343.257812 307.007812 360.164062 346.6875 390.355469 375 L 263.664062 375 C 257.929688 353.003906 240.746094 335.820312 218.75 330.085938 Z M 218.75 201.164062 " style=" stroke:none;fill-rule:nonzero;fill:rgb(0%,0%,0%);fill-opacity:1;" />
<path d="M 265.625 250 L 296.875 250 L 296.875 281.25 L 265.625 281.25 Z M 265.625 250 " style=" stroke:none;fill-rule:nonzero;fill:rgb(0%,0%,0%);fill-opacity:1;" />
<path d="M 640.625 250 L 671.875 250 L 671.875 281.25 L 640.625 281.25 Z M 640.625 250 " style=" stroke:none;fill-rule:nonzero;fill:rgb(0%,0%,0%);fill-opacity:1;" />
<path d="M 62.5 578.125 L 31.25 578.125 C 31.320312 638.5 80.25 687.429688 140.625 687.5 L 140.625 656.25 C 97.5 656.195312 62.554688 621.25 62.5 578.125 Z M 62.5 578.125 " style=" stroke:none;fill-rule:nonzero;fill:rgb(0%,0%,0%);fill-opacity:1;" />
</g>
</svg>