<?xml version="1.0" encoding="iso-8859-1"?>
<!-- Generator: Adobe Illustrator 19.0.0, SVG Export Plug-In . SVG Version: 6.00 Build 0)  -->
<svg version="1.1" id="Capa_1" xmlns="http://www.w3.org/2000/svg" xmlns:xlink="http://www.w3.org/1999/xlink" x="0px" y="0px"
	 viewBox="0 0 384 384" style="enable-background:new 0 0 384 384;" xml:space="preserve">
<polygon style="fill:#4DD0E1;" points="144,55.999 144,327.999 368,191.999 "/>
<g>
	<path style="fill:#012E52;" d="M376.304,178.327l-224-136c-4.944-3-11.12-3.104-16.152-0.272C131.12,44.887,128,50.215,128,55.999
		v136c0,8.832,7.168,16,16,16s16-7.168,16-16V84.431l177.168,107.568L160,299.567v-43.568c0-8.832-7.168-16-16-16s-16,7.168-16,16
		v72c0,5.784,3.12,11.112,8.152,13.944c2.44,1.376,5.144,2.056,7.848,2.056c2.88,0,5.752-0.776,8.304-2.328l224-136
		c4.776-2.896,7.696-8.08,7.696-13.672S381.08,181.223,376.304,178.327z"/>
	<path style="fill:#012E52;" d="M16,311.999h72c8.832,0,16-7.168,16-16s-7.168-16-16-16H16c-8.832,0-16,7.168-16,16
		S7.168,311.999,16,311.999z"/>
	<path style="fill:#012E52;" d="M16,103.999h40c8.832,0,16-7.168,16-16s-7.168-16-16-16H16c-8.832,0-16,7.168-16,16
		S7.168,103.999,16,103.999z"/>
	<path style="fill:#012E52;" d="M104,151.999c0-8.832-7.168-16-16-16h-8c-8.832,0-16,7.168-16,16s7.168,16,16,16h8
		C96.832,167.999,104,160.831,104,151.999z"/>
	<path style="fill:#012E52;" d="M48,207.999c-8.832,0-16,7.168-16,16s7.168,16,16,16h24c8.832,0,16-7.168,16-16s-7.168-16-16-16H48z
		"/>
</g>
<g>
</g>
<g>
</g>
<g>
</g>
<g>
</g>
<g>
</g>
<g>
</g>
<g>
</g>
<g>
</g>
<g>
</g>
<g>
</g>
<g>
</g>
<g>
</g>
<g>
</g>
<g>
</g>
<g>
</g>
</svg>
