<?xml version="1.0" encoding="iso-8859-1"?>
<!-- Generator: Adobe Illustrator 19.0.0, SVG Export Plug-In . SVG Version: 6.00 Build 0)  -->
<svg version="1.1" id="Capa_1" xmlns="http://www.w3.org/2000/svg" xmlns:xlink="http://www.w3.org/1999/xlink" x="0px" y="0px"
	 viewBox="0 0 512.001 512.001" style="enable-background:new 0 0 512.001 512.001;" xml:space="preserve">
<g>
	<g>
		<path d="M96.001,276.287c-29.397,0-53.333,23.936-53.333,53.333s23.936,53.333,53.333,53.333s53.333-23.936,53.333-53.333
			S125.398,276.287,96.001,276.287z M96.001,361.62c-17.643,0-32-14.357-32-32c0-17.643,14.357-32,32-32c17.643,0,32,14.357,32,32
			S113.644,361.62,96.001,361.62z"/>
	</g>
</g>
<g>
	<g>
		<path d="M416.001,276.287c-29.397,0-53.333,23.936-53.333,53.333s23.936,53.333,53.333,53.333s53.333-23.936,53.333-53.333
			S445.398,276.287,416.001,276.287z M416.001,361.62c-17.643,0-32-14.357-32-32c0-17.643,14.357-32,32-32c17.643,0,32,14.357,32,32
			S433.644,361.62,416.001,361.62z"/>
	</g>
</g>
<g>
	<g>
		<path d="M463.98,208.489l-57.685-5.76c-5.205-0.512-10.219-2.325-14.571-5.227l-73.216-48.811
			c-10.624-7.083-22.955-11.349-35.691-12.331l-92.629-7.104c-21.76-1.621-43.093,6.208-58.539,21.653l-24.448,24.427
			c-10.069,10.069-23.467,15.616-37.717,15.616H53.334c-29.397,0-53.333,23.936-53.333,53.333v64c0,17.643,14.357,32,32,32h21.333
			c0.512,0,0.939-0.213,1.429-0.277c-0.853-3.349-1.429-6.784-1.429-10.389c0-23.573,19.093-42.667,42.667-42.667
			c23.573,0,42.667,19.093,42.667,42.667c0,3.605-0.576,7.04-1.429,10.389c0.491,0.064,0.917,0.277,1.429,0.277h234.667
			c0.512,0,0.939-0.213,1.429-0.277c-0.832-3.349-1.429-6.784-1.429-10.389c0-23.573,19.093-42.667,42.667-42.667
			c23.573,0,42.667,19.093,42.667,42.667c0,3.563-0.555,6.976-1.387,10.283c0.491,0.064,0.896,0.384,1.408,0.384
			c1.6,0,3.221-0.363,4.757-1.131l19.093-9.536c18.176-9.109,29.461-27.371,29.461-47.701v-20.352
			C512.001,234.068,491.35,211.241,463.98,208.489z M288.001,276.287h-21.333c-5.888,0-10.667-4.779-10.667-10.667
			s4.779-10.667,10.667-10.667h21.333c5.888,0,10.667,4.779,10.667,10.667S293.889,276.287,288.001,276.287z M352.001,233.62
			H181.334c-3.712,0-7.168-1.941-9.109-5.12s-2.091-7.125-0.384-10.453c2.325-4.523,23.488-44.544,46.912-57.728
			c5.12-2.901,11.627-1.067,14.528,4.053c2.901,5.141,1.067,11.627-4.053,14.528c-10.133,5.717-21.376,20.8-29.376,33.387h152.149
			c5.888,0,10.667,4.779,10.667,10.667S357.889,233.62,352.001,233.62z"/>
	</g>
</g>
<g>
	<g>
		<path d="M55.916,159.273l-42.667-10.667c-5.76-1.472-11.52,2.027-12.928,7.765c-1.429,5.717,2.048,11.499,7.765,12.928
			l42.667,10.667c0.875,0.213,1.749,0.32,2.603,0.32c4.779,0,9.109-3.221,10.325-8.085C65.11,166.484,61.633,160.703,55.916,159.273
			z"/>
	</g>
</g>
<g>
	<g>
		<path d="M52.78,198.249l-10.667-32c-1.856-5.589-7.829-8.597-13.483-6.741c-5.589,1.856-8.597,7.893-6.741,13.483l10.667,32
			c1.493,4.48,5.653,7.296,10.112,7.296c1.109,0,2.24-0.171,3.371-0.555C51.628,209.876,54.657,203.839,52.78,198.249z"/>
	</g>
</g>
<g>
</g>
<g>
</g>
<g>
</g>
<g>
</g>
<g>
</g>
<g>
</g>
<g>
</g>
<g>
</g>
<g>
</g>
<g>
</g>
<g>
</g>
<g>
</g>
<g>
</g>
<g>
</g>
<g>
</g>
</svg>
