<?xml version="1.0" encoding="iso-8859-1"?>
<!-- Generator: Adobe Illustrator 19.0.0, SVG Export Plug-In . SVG Version: 6.00 Build 0)  -->
<svg version="1.1" id="Capa_1" xmlns="http://www.w3.org/2000/svg" xmlns:xlink="http://www.w3.org/1999/xlink" x="0px" y="0px"
	 viewBox="0 0 512 512" style="enable-background:new 0 0 512 512;" xml:space="preserve">
<g>
	<g>
		<path d="M426.7,234.735c-47,0-85.3,38.3-85.3,85.3s38.2,85.3,85.3,85.3c47,0,85.3-38.2,85.3-85.3
			C512,272.935,473.7,234.735,426.7,234.735z M426.7,384.035c-35.3,0-64-28.7-64-64s28.7-64,64-64s64,28.7,64,64
			S462,384.035,426.7,384.035z"/>
	</g>
</g>
<g>
	<g>
		<path d="M168,299.735c-1.4-5.7-7.2-9.2-12.9-7.8c-5.7,1.4-9.2,7.2-7.8,12.9c1.4,5.7,2,10.5,2,15.2c0,35.3-28.7,64-64,64
			s-64-28.7-64-64c0-25.1,14.9-48,37.9-58.3c5.4-2.4,7.8-8.7,5.4-14.1c-2.4-5.4-8.7-7.8-14.1-5.4c-30.7,13.8-50.5,44.3-50.5,77.8
			c0,47,38.2,85.3,85.3,85.3c47.1,0,85.4-38.2,85.4-85.3C170.7,313.735,169.8,307.035,168,299.735z"/>
	</g>
</g>
<g>
	<g>
		<path d="M402.1,109.735c-2.1-2-4.9-3.1-7.8-3c-7.6,0.2-74.3,3.5-74.3,42.7c0,39.2,66.7,42.4,74.3,42.7c0.1,0,0.2,0,0.3,0
			c2.8,0,5.4-1.1,7.4-3c2.1-2,3.2-4.8,3.2-7.7v-64C405.3,114.535,404.2,111.735,402.1,109.735z"/>
	</g>
</g>
<g>
	<g>
		<path d="M334.1,128.535l-64-21.3c-5.5-1.9-11.6,1.1-13.5,6.7c-1.9,5.6,1.1,11.6,6.7,13.5l64,21.3c1.2,0.4,2.3,0.6,3.4,0.6
			c4.4,0,8.6-2.8,10.1-7.3C342.7,136.435,339.7,130.435,334.1,128.535z"/>
	</g>
</g>
<g>
	<g>
		<path d="M436,314.835l-85.3-149.3c-3-5.2-9.6-6.9-14.6-4c-5.2,2.9-6.9,9.4-4,14.5l85.3,149.3c2,3.5,5.6,5.4,9.3,5.4
			c1.8,0,3.6-0.5,5.3-1.4C437.2,326.435,438.9,319.935,436,314.835z"/>
	</g>
</g>
<g>
	<g>
		<path d="M160,309.335l-11.6-3l-33.2-22.2l1-2c2.6-5.3,0.5-11.7-4.8-14.3c-5.3-2.6-11.6-0.5-14.3,4.8l-21.3,42.7
			c-1.6,3.3-1.5,7.2,0.4,10.4c2,3.1,5.4,5.1,9.1,5.1H160c5.9,0,10.7-4.8,10.7-10.7S165.9,309.335,160,309.335z"/>
	</g>
</g>
<g>
	<g>
		<path d="M344.4,161.235c-3.1-11-11.3-11.9-13.7-11.9c-57.6,0-112.5,29.6-143.6,55c-1.7-1.1-3.6-1.7-5.8-1.7
			c-21.5,0-82.9-10.4-83.5-10.5c-3.1-0.6-6.3,0.3-8.7,2.4c-2.4,2-3.8,5-3.8,8.1v10.8c-34.8,1-57.8,7.1-68.4,18.1
			c-6.1,6.3-6.3,12.4-6.3,14.2c0.3,5.7,4.9,10.2,10.7,10.2c43.2,0,141.2,60.3,175.3,83.5c1.8,1.2,3.8,1.9,6,1.9H288
			c36.2,0,57.8-141,57.8-166.1C345.8,169.335,345.3,164.735,344.4,161.235z"/>
	</g>
</g>
<g>
</g>
<g>
</g>
<g>
</g>
<g>
</g>
<g>
</g>
<g>
</g>
<g>
</g>
<g>
</g>
<g>
</g>
<g>
</g>
<g>
</g>
<g>
</g>
<g>
</g>
<g>
</g>
<g>
</g>
</svg>
