<?xml version="1.0" encoding="iso-8859-1"?>
<!-- Generator: Adobe Illustrator 19.0.0, SVG Export Plug-In . SVG Version: 6.00 Build 0)  -->
<svg version="1.1" id="Capa_1" xmlns="http://www.w3.org/2000/svg" xmlns:xlink="http://www.w3.org/1999/xlink" x="0px" y="0px"
	 viewBox="0 0 512 512" style="enable-background:new 0 0 512 512;" xml:space="preserve">
<g>
	<g>
		<g>
			<path d="M172.983,374.857h28.16v-36.571h-46.72C164.472,348.097,170.997,360.954,172.983,374.857z"/>
			<path d="M109.714,338.286C84.467,338.286,64,358.753,64,384s20.467,45.714,45.714,45.714s45.714-20.467,45.714-45.714
				C155.419,358.756,134.958,338.295,109.714,338.286z M109.714,411.429c-15.148,0-27.429-12.28-27.429-27.429
				s12.28-27.429,27.429-27.429s27.429,12.28,27.429,27.429C137.098,399.13,124.844,411.384,109.714,411.429z"/>
			<path d="M109.714,374.857c-5.049,0-9.143,4.093-9.143,9.143s4.093,9.143,9.143,9.143s9.143-4.093,9.143-9.143
				C118.842,378.957,114.758,374.872,109.714,374.857z"/>
			<path d="M18.286,338.286v27.429c0.015,5.043,4.099,9.128,9.143,9.143h19.017c1.986-13.903,8.511-26.76,18.56-36.571H18.286z"/>
			<path d="M338.286,91.429c-0.015-5.043-4.099-9.128-9.143-9.143h-320C4.099,82.3,0.015,86.385,0,91.429V320h338.286V91.429z"/>
			<rect x="219.429" y="338.286" width="64" height="36.571"/>
			<path d="M509.623,238.537l-62.994-70.949c-1.754-1.933-4.247-3.03-6.857-3.017h-28.343V256c0.015,5.043,4.099,9.128,9.143,9.143
				H512v-20.48C511.987,242.398,511.141,240.218,509.623,238.537z"/>
			<path d="M402.286,338.286c-25.247,0-45.714,20.467-45.714,45.714s20.467,45.714,45.714,45.714S448,409.247,448,384
				C447.991,358.756,427.529,338.295,402.286,338.286z M402.286,411.429c-15.148,0-27.429-12.28-27.429-27.429
				s12.28-27.429,27.429-27.429c15.148,0,27.429,12.28,27.429,27.429C429.67,399.13,417.416,411.384,402.286,411.429z"/>
			<path d="M393.143,256v-91.429h-36.571V320h45.714c31.782,0.048,58.717,23.403,63.269,54.857h37.303
				c5.043-0.015,9.128-4.099,9.143-9.143v-82.286h-91.429C405.442,283.384,393.187,271.13,393.143,256z"/>
			<path d="M301.714,338.286v36.571h37.303c1.986-13.903,8.511-26.76,18.56-36.571H301.714z"/>
			<path d="M402.286,374.857c-5.049,0-9.143,4.093-9.143,9.143s4.093,9.143,9.143,9.143c5.049,0,9.143-4.093,9.143-9.143
				C411.414,378.957,407.329,374.872,402.286,374.857z"/>
		</g>
	</g>
</g>
<g>
</g>
<g>
</g>
<g>
</g>
<g>
</g>
<g>
</g>
<g>
</g>
<g>
</g>
<g>
</g>
<g>
</g>
<g>
</g>
<g>
</g>
<g>
</g>
<g>
</g>
<g>
</g>
<g>
</g>
</svg>
