<svg height="484pt" viewBox="-1 0 484 484.5522" width="484pt" xmlns="http://www.w3.org/2000/svg"><path d="m477.980469 348.800781-45.105469-16.417969c-4.15625-1.503906-8.742188.644532-10.246094 4.800782l-2.738281 7.511718-52.253906-19.054687c-1.3125-.492187-2.734375-.613281-4.113281-.359375l-108.71875 19.199219c-9.855469 1.753906-18.320313 8.011719-22.898438 16.910156l-49.871094-18.191406c-7.964844-2.929688-16.777344-2.539063-24.453125 1.082031-9.753906 4.550781-16.570312 13.683594-18.160156 24.328125-1.992187 15.40625 7.132813 30.089844 21.832031 35.125l164.277344 59.792969c.875.324218 1.804688.492187 2.738281.488281.871094 0 1.734375-.144531 2.558594-.421875l45.878906-15.488281 4.882813 1.773437-2.738282 7.519532c-1.503906 4.15625.644532 8.746093 4.800782 10.25l45.113281 16.414062c.871094.324219 1.796875.492188 2.726563.488281 3.363281.003907 6.371093-2.101562 7.519531-5.261719l43.777343-120.289062c1.472657-4.144531-.675781-8.699219-4.808593-10.199219zm-103.738281 83.269531-45.878907 15.488282-161.640625-58.839844c-7.476562-2.488281-12.246094-9.816406-11.488281-17.664062.675781-4.78125 3.472656-9 7.613281-11.488282 4.140625-2.484375 9.179688-2.964844 13.714844-1.308594l51.90625 18.886719c.027344 1.476563.144531 2.949219.359375 4.40625 3.136719 17.351563 19.667969 28.9375 37.046875 25.960938l90.066406-15.878907-2.785156-15.761718-90.023438 15.882812c-8.667968 1.472656-16.917968-4.277344-18.535156-12.921875-.332031-1.824219-.320312-3.699219.039063-5.519531.058593-.265625.105469-.53125.136719-.800781.105468-.683594.289062-1.351563.550781-1.992188 1.964843-5.371093 6.636719-9.289062 12.265625-10.296875l106.589844-18.796875 50.242187 18.277344-27.363281 75.199219-7.519532-2.726563c-1.703124-.632812-3.570312-.671875-5.296874-.105469zm52.433593 34.25-30.070312-10.945312 38.300781-105.246094 30.074219 10.941406zm0 0"/><path d="m186.621094 129.046875c2.582031 9.453125 7.34375 18.171875 13.902344 25.449219-.121094.640625-.207032 1.285156-.246094 1.9375v43.566406c0 13.253906 10.742187 24 24 24v80c-.019532 3.046875 1.699218 5.839844 4.421875 7.199219l16 8c2.253906 1.125 4.902343 1.125 7.152343 0l16-8c2.726563-1.359375 4.441407-4.152344 4.425782-7.199219v-80c13.253906 0 24-10.746094 24-24v-43.566406c-.042969-.699219-.132813-1.394532-.265625-2.082032 5.34375-5.878906 9.507812-12.730468 12.265625-20.183593 11.8125 1.984375 23.636718-3.441407 29.839844-13.6875 7.605468-12.582031 5.523437-28.75-5.023438-38.992188l-65.105469-65.089843c-10.476562-10.53125-24.734375-16.4375005-39.59375-16.398438h-84.117187c-1.085938-.00390625-2.15625.21875-3.152344.648438l-54.449219 23.351562h-6.398437v-16c0-4.417969-3.582032-8-8-8h-64c-4.417969 0-8 3.582031-8 8v128c0 4.417969 3.582031 8 8 8h64c4.417968 0 8-3.582031 8-8v-16h1.167968c5.726563 19.199219 31.453126 32 54.832032 32 19.394531.398438 37.921875-8.046875 50.34375-22.953125zm-122.34375-1.046875h-48v-112h48zm192 171.054688-8 4-8-4v-75.054688h16zm24-99.054688c0 4.417969-3.582032 8-8 8h-48c-4.417969 0-8-3.582031-8-8v-32.65625c5.378906 3.132812 11.195312 5.453125 17.253906 6.878906 2.765625 6.730469 9.699219 10.769532 16.914062 9.855469 7.21875-.910156 12.929688-6.546875 13.933594-13.753906 1.003906-7.203125-2.949218-14.1875-9.640625-17.039063-6.695312-2.847656-14.46875-.859375-18.964843 4.859375-4.511719-1.183593-8.828126-3.023437-12.800782-5.464843 7.710938-4.675782 16.34375-7.636719 25.304688-8.679688 11.484375 1.613281 22.4375 5.871094 32 12.433594zm5.957031-58.617188c-11.4375-7.355468-24.433594-11.9375-37.957031-13.382812-13.5 1.4375-26.476563 6.011719-37.898438 13.351562-4.878906-6.210937-8.109375-13.554687-9.390625-21.351562h39.289063c11.71875.117188 22.515625-6.34375 27.949218-16.726562l22.402344 22.398437c.894532.835937 1.839844 1.613281 2.832032 2.328125-1.648438 4.832031-4.089844 9.355469-7.226563 13.382812zm-14.335937-57.070312c-.746094-6.546875-3.519532-12.699219-7.925782-17.601562 18.09375 6.285156 30.722656 22.722656 32.128906 41.824218zm-95.621094 27.6875c0 12.113281-19.816406 24-40 24s-40-11.886719-40-24c0-4.417969-3.582032-8-8-8h-8v-64h8c1.082031.003906 2.15625-.21875 3.152344-.648438l54.445312-23.351562h82.480469c10.625-.039062 20.828125 4.179688 28.320312 11.710938l65.089844 65.089843c5.261719 4.914063 6.445313 12.804688 2.855469 19.046875-2.671875 4.230469-7.34375 6.769532-12.34375 6.710938-.128906 0-.25 0-.378906 0 .242187-2.175782.367187-4.367188.378906-6.558594-.039063-35.328125-28.671875-63.960938-64-64-10.75.015625-21.320313 2.769531-30.714844 8h-65.285156v16h88c8.835937 0 16 7.164062 16 16s-7.164063 16-16 16h-56c-4.417969 0-8 3.582031-8 8zm0 0"/></svg>