<?xml version="1.0" encoding="iso-8859-1"?>
<!-- Generator: Adobe Illustrator 19.0.0, SVG Export Plug-In . SVG Version: 6.00 Build 0)  -->
<svg version="1.1" id="Capa_1" xmlns="http://www.w3.org/2000/svg" xmlns:xlink="http://www.w3.org/1999/xlink" x="0px" y="0px"
	 viewBox="0 0 511.998 511.998" style="enable-background:new 0 0 511.998 511.998;" xml:space="preserve">
<g>
	<g>
		<g>
			<path d="M177.461,374.407c-34.713,0-62.951,28.238-62.951,62.951s28.238,62.951,62.951,62.951s62.951-28.238,62.951-62.951
				S212.174,374.407,177.461,374.407z M177.461,464.336c-14.874,0-26.979-12.105-26.979-26.979s12.105-26.979,26.979-26.979
				c14.88,0,26.979,12.105,26.979,26.979S192.336,464.336,177.461,464.336z"/>
			<path d="M378.904,374.407c-34.713,0-62.951,28.238-62.951,62.951s28.238,62.951,62.951,62.951
				c34.713,0,62.951-28.238,62.951-62.951S413.617,374.407,378.904,374.407z M378.904,464.336
				c-14.874,0-26.979-12.105-26.979-26.979s12.105-26.979,26.979-26.979c14.88,0,26.979,12.105,26.979,26.979
				S393.778,464.336,378.904,464.336z"/>
			<path d="M508.181,134.912c-3.405-4.359-8.633-6.907-14.167-6.907h-86.333c-9.934,0-17.986,8.052-17.986,17.986
				c0,9.934,8.052,17.986,17.986,17.986h63.341L434.99,309.064H144.025l-31.226-145.093h62.863v-35.972h-70.605L87.729,47.482
				c-1.787-8.286-9.107-14.203-17.584-14.203H17.986C8.052,33.279,0,41.331,0,51.265c0,9.934,8.052,17.986,17.986,17.986h37.633
				l56.296,261.576c1.787,8.286,9.107,14.203,17.584,14.203h319.55c8.262,0,15.462-5.636,17.452-13.651l44.965-181.053
				C512.803,144.954,511.586,139.27,508.181,134.912z"/>
		</g>
	</g>
</g>
<g>
	<g>
		<path d="M291.372,11.69c-73.389,0-133.096,59.707-133.096,133.096s59.707,133.096,133.096,133.096s133.096-59.707,133.096-133.096
			S364.761,11.69,291.372,11.69z M291.372,241.91c-53.556,0-97.124-43.574-97.124-97.124s43.568-97.124,97.124-97.124
			c53.55,0,97.124,43.574,97.124,97.124C388.497,198.336,344.929,241.91,291.372,241.91z"/>
	</g>
</g>
<g>
	<g>
		<path d="M291.372,89.03c-9.934,0-17.986,8.052-17.986,17.986v75.541c0,9.934,8.052,17.986,17.986,17.986
			c9.934,0,17.986-8.052,17.986-17.986v-75.541C309.358,97.081,301.307,89.03,291.372,89.03z"/>
	</g>
</g>
<g>
	<g>
		<path d="M328.543,126.8h-74.941c-9.934,0-17.986,8.052-17.986,17.986c0,9.934,8.052,17.986,17.986,17.986h74.941
			c9.934,0,17.986-8.052,17.986-17.986C346.529,134.852,338.478,126.8,328.543,126.8z"/>
	</g>
</g>
<g>
</g>
<g>
</g>
<g>
</g>
<g>
</g>
<g>
</g>
<g>
</g>
<g>
</g>
<g>
</g>
<g>
</g>
<g>
</g>
<g>
</g>
<g>
</g>
<g>
</g>
<g>
</g>
<g>
</g>
</svg>
