<svg height="512pt" viewBox="-38 0 512 512" width="512pt" xmlns="http://www.w3.org/2000/svg"><path d="m231.007812 424.359375c0-31.515625 12.273438-61.148437 34.558594-83.433594 22.285156-22.285156 51.917969-34.558593 83.433594-34.558593 4.007812 0 7.980469.199218 11.914062.589843-11.617187-53.558593-53.332031-96.023437-106.492187-108.707031 24.457031-20.628906 40.019531-51.476562 40.019531-85.894531 0-61.953125-50.402344-112.355469-112.351562-112.355469-61.953125 0-112.355469 50.402344-112.355469 112.351562 0 34.421876 15.566406 65.269532 40.019531 85.894532-62.867187 15-109.753906 71.640625-109.753906 139.03125v111.449218h233.519531c-1.65625-7.925781-2.511719-16.082031-2.511719-24.367187zm0 0"/><path d="m261.359375 424.359375c0 48.402344 39.238281 87.640625 87.640625 87.640625s87.640625-39.238281 87.640625-87.640625-39.238281-87.640625-87.640625-87.640625-87.640625 39.238281-87.640625 87.640625zm134.222656-15.175781v30.351562h-31.40625v31.402344h-30.351562v-31.402344h-31.402344v-30.351562h31.402344v-31.40625h30.351562v31.40625zm0 0"/></svg>