<svg id="Capa_1" enable-background="new 0 0 512 512" height="512" viewBox="0 0 512 512" width="512" xmlns="http://www.w3.org/2000/svg"><g><path d="m400.663 0c-19.458 0-315.452 0-334.294 0-13.173 0-23.851 10.678-23.851 23.851v441.11l381.996-47.039v-394.071c0-13.173-10.679-23.851-23.851-23.851z" fill="#9dc6fb"/><path d="m400.663 0c-3.166 0-13.655 0-29.074 0 13.172 0 23.851 10.678 23.851 23.851v394.071l13.559 8.736 15.515-8.736v-394.071c0-13.173-10.679-23.851-23.851-23.851z" fill="#80b4fb"/><path d="m42.518 448.385c0-16.824 40.58 16.576 57.404 16.576l20.319-47.039v-417.922h-53.872c-13.173 0-23.851 10.678-23.851 23.851z" fill="#26457d"/><path d="m469.482 136.071h-44.968v-78.722h32.736c6.756 0 12.232 5.477 12.232 12.232z" fill="#ffe07d"/><path d="m424.514 57.349h22.484v78.722h-22.484z" fill="#ffd064"/><path d="m424.514 136.071h44.968v78.722h-44.968z" fill="#95d6a4"/><path d="m424.514 136.071h22.484v78.722h-22.484z" fill="#78c2a4"/><path d="m424.514 214.793h44.968v78.722h-44.968z" fill="#e7a561"/><path d="m424.514 214.793h22.484v78.722h-22.484z" fill="#e49542"/><path d="m457.25 372.236h-32.736v-78.722h44.968v66.49c0 6.756-5.476 12.232-12.232 12.232z" fill="#df73c1"/><path d="m424.514 293.515h22.484v78.722h-22.484z" fill="#dd4fb1"/><path d="m263.328 212.403-55.085-55.085c-2.463-2.463-6.456-2.463-8.919 0l-12.386 12.386c-18.495 18.495-18.495 48.481 0 66.976l102.285 102.285c18.495 18.495 48.481 18.495 66.976 0l12.386-12.386c2.463-2.463 2.463-6.456 0-8.919l-55.085-55.085c-2.463-2.463-6.456-2.463-8.919 0l-11.102 11.102c-5.305 5.305-13.906 5.305-19.211 0l-22.042-22.042c-5.305-5.305-5.305-13.906 0-19.21l11.102-11.102c2.463-2.464 2.463-6.457 0-8.92z" fill="#f9f6f6"/><g><path d="m315.315 54.025h-87.131c-4.268 0-7.726-3.459-7.726-7.726s3.459-7.726 7.726-7.726h87.131c4.268 0 7.726 3.459 7.726 7.726s-3.459 7.726-7.726 7.726z" fill="#21386b"/></g><g><path d="m351.371 101.75h-159.244c-4.268 0-7.726-3.459-7.726-7.726s3.459-7.726 7.726-7.726h159.243c4.268 0 7.726 3.459 7.726 7.726.001 4.267-3.458 7.726-7.725 7.726z" fill="#21386b"/></g><path d="m424.514 417.922h-351.534c-16.824 0-30.462 13.638-30.462 30.462v33.153c0 16.825 13.638 30.463 30.462 30.463h327.682c13.172 0 23.851-10.678 23.851-23.851v-70.227z" fill="#f9f6f6"/><path d="m395.497 417.922v70.227c0 13.172-10.678 23.851-23.851 23.851h29.017c13.172 0 23.851-10.678 23.851-23.851v-70.227z" fill="#dddaec"/><g><g><path d="m377.853 457.802h-288.674c-4.268 0-7.726-3.459-7.726-7.726s3.459-7.726 7.726-7.726h288.674c4.268 0 7.726 3.459 7.726 7.726s-3.459 7.726-7.726 7.726z" fill="#dddaec"/></g><g><path d="m377.853 487.573h-288.674c-4.268 0-7.726-3.459-7.726-7.726s3.459-7.726 7.726-7.726h288.674c4.268 0 7.726 3.459 7.726 7.726s-3.459 7.726-7.726 7.726z" fill="#dddaec"/></g></g></g></svg>