<svg height="512" viewBox="0 0 74 74" width="512" xmlns="http://www.w3.org/2000/svg"><g id="Numbers"><text fill="#f00" font-family="ArialMT, Arial" font-size="18" transform="translate(31.995 -886.544)">6<tspan x="-5.005" y="124">16</tspan><tspan x="-5.005" y="248">26</tspan><tspan x="-5.005" y="372">36</tspan><tspan x="-5.005" y="496">46</tspan><tspan x="-5.005" y="620">56</tspan><tspan x="-5.005" y="744">66</tspan><tspan x="-5.005" y="868">76</tspan><tspan x="-5.005" y="992">86</tspan><tspan x="-5.005" y="1116">96</tspan><tspan x="-10.011" y="1240">106</tspan><tspan letter-spacing="-.074em" x="-9.343" y="1364">1</tspan><tspan x="-.668" y="1364">16</tspan><tspan x="-10.011" y="1488">126</tspan><tspan x="-10.011" y="1612">136</tspan><tspan x="-10.011" y="1736">146</tspan><tspan x="-10.011" y="1860">156</tspan><tspan x="-10.011" y="1984">166</tspan><tspan x="-10.011" y="2108">176</tspan><tspan x="-10.011" y="2232">186</tspan><tspan x="-10.011" y="2356">196</tspan><tspan x="-10.011" y="2480">206</tspan><tspan x="-10.011" y="2604">216</tspan><tspan x="-10.011" y="2728">226</tspan><tspan x="-10.011" y="2852">236</tspan><tspan x="-10.011" y="2976">246</tspan><tspan x="-10.011" y="3100">256</tspan><tspan x="-10.011" y="3224">266</tspan><tspan x="-10.011" y="3348">276</tspan><tspan x="-10.011" y="3472">286</tspan><tspan x="-10.011" y="3596">296</tspan></text></g><g id="color_styel" data-name="color styel"><path d="m62 62.063a.5.5 0 0 1 -.5-.5v-1.063a.5.5 0 0 1 1 0v1.063a.5.5 0 0 1 -.5.5z" fill="#323c6b"/><path d="m62 58a.5.5 0 0 1 -.5-.5v-10.125a.5.5 0 0 1 1 0v10.125a.5.5 0 0 1 -.5.5z" fill="#323c6b"/><path d="m15 19h44v44h-44z" fill="#bbbbcd"/><path d="m59 63.5h-44a.5.5 0 0 1 -.5-.5v-44a.5.5 0 0 1 .5-.5h44a.5.5 0 0 1 .5.5v44a.5.5 0 0 1 -.5.5zm-43.5-1h43v-43h-43z" fill="#323c6b"/><path d="m56 19h3v44h-3z" fill="#9a9eaf"/><path d="m59 63v4a4 4 0 0 1 -4 4h-36a4 4 0 0 1 -4-4v-4z" fill="#9a9eaf"/><path d="m55 71.5h-36a4.5 4.5 0 0 1 -4.5-4.5v-4a.5.5 0 0 1 .5-.5h44a.5.5 0 0 1 .5.5v4a4.5 4.5 0 0 1 -4.5 4.5zm-39.5-8v3.5a3.5 3.5 0 0 0 3.5 3.5h36a3.5 3.5 0 0 0 3.5-3.5v-3.5z" fill="#323c6b"/><path d="m56 63v4a4 4 0 0 1 -4 4h3a4 4 0 0 0 4-4v-4z" fill="#828a9e"/><path d="m9.5 10.893a.5.5 0 0 1 -.464-.687 7.47 7.47 0 0 1 6.964-4.706.5.5 0 0 1 0 1 6.476 6.476 0 0 0 -6.032 4.08.5.5 0 0 1 -.468.313z" fill="#323c6b"/><path d="m9 14.5a.5.5 0 0 1 -.5-.5v-1.222a.5.5 0 1 1 1 .028v1.194a.5.5 0 0 1 -.5.5z" fill="#323c6b"/><path d="m62 13v6h-50v-6a4 4 0 0 1 4-4h42a4 4 0 0 1 4 4z" fill="#9a9eaf"/><path d="m62 19.5h-50a.5.5 0 0 1 -.5-.5v-6a4.5 4.5 0 0 1 4.5-4.5h42a4.5 4.5 0 0 1 4.5 4.5v6a.5.5 0 0 1 -.5.5zm-49.5-1h49v-5.5a3.5 3.5 0 0 0 -3.5-3.5h-42a3.5 3.5 0 0 0 -3.5 3.5z" fill="#323c6b"/><path d="m58 9h-3a4 4 0 0 1 4 4v6h3v-6a4 4 0 0 0 -4-4z" fill="#828a9e"/><g fill="#323c6b"><path d="m47 9.5h-20a.5.5 0 0 1 -.475-.658l2-6a.5.5 0 0 1 .475-.342h16a.5.5 0 0 1 .475.342l2 6a.5.5 0 0 1 -.475.658zm-19.307-1h18.614l-1.667-5h-15.28z"/><path d="m48.5 32.688h1v18.625h-1z"/><path d="m36.5 28h1v28h-1z"/><path d="m24.5 32.688h1v18.625h-1z"/><path d="m62 19.5h-50a.5.5 0 0 1 -.5-.5v-6a4.5 4.5 0 0 1 4.5-4.5h42a4.5 4.5 0 0 1 4.5 4.5v6a.5.5 0 0 1 -.5.5zm-49.5-1h49v-5.5a3.5 3.5 0 0 0 -3.5-3.5h-42a3.5 3.5 0 0 0 -3.5 3.5z"/><path d="m59 63.5h-44a.5.5 0 0 1 -.5-.5v-44a.5.5 0 0 1 .5-.5h44a.5.5 0 0 1 .5.5v44a.5.5 0 0 1 -.5.5zm-43.5-1h43v-43h-43z"/><path d="m55 71.5h-36a4.5 4.5 0 0 1 -4.5-4.5v-4a.5.5 0 0 1 .5-.5h44a.5.5 0 0 1 .5.5v4a4.5 4.5 0 0 1 -4.5 4.5zm-39.5-8v3.5a3.5 3.5 0 0 0 3.5 3.5h36a3.5 3.5 0 0 0 3.5-3.5v-3.5z"/></g><g fill="#eeefee"><rect height="12.212" rx=".828" width="1.656" x="17.892" y="26.874"/><rect height="2.099" rx=".828" width="1.656" x="17.892" y="22.875"/></g></g></svg>